<svg xmlns="http://www.w3.org/2000/svg" width="1920" height="1080"><path d="M-132,-341L375,-265L544,-264Z" fill="#def2d7" stroke="#def2d7" stroke-width="1.51"/><path d="M544,-264L737,-274L1101,-342Z" fill="#c1e7d2" stroke="#c1e7d2" stroke-width="1.51"/><path d="M-132,-341L544,-264L1101,-342Z" fill="#d3eed2" stroke="#d3eed2" stroke-width="1.51"/><path d="M968,1322L500,1404L1161,1312Z" fill="#588fac" stroke="#588fac" stroke-width="1.51"/><path d="M1352,1298L1161,1312L1618,1338Z" fill="#2f80b5" stroke="#2f80b5" stroke-width="1.51"/><path d="M1161,1312L500,1404L1618,1338Z" fill="#4788b0" stroke="#4788b0" stroke-width="1.51"/><path d="M1838,1300L1618,1338L1948,1318Z" fill="#1569a8" stroke="#1569a8" stroke-width="1.51"/><path d="M1746,-266L1915,-235L2115,-253Z" fill="#91aeca" stroke="#91aeca" stroke-width="1.51"/><path d="M1551,-340L1746,-266L2115,-253Z" fill="#95b6ce" stroke="#95b6ce" stroke-width="1.51"/><path d="M1618,1338L500,1404L2131,1363Z" fill="#2c79ae" stroke="#2c79ae" stroke-width="1.51"/><path d="M1948,1318L1618,1338L2131,1363Z" fill="#0f61a3" stroke="#0f61a3" stroke-width="1.51"/><path d="M1983,1229L2131,1363L2158,1087Z" fill="#0a60a3" stroke="#0a60a3" stroke-width="1.51"/><path d="M1997,777L1947,954L2159,1025Z" fill="#277cb4" stroke="#277cb4" stroke-width="1.51"/><path d="M1997,777L2159,1025L2172,695Z" fill="#2f7eb2" stroke="#2f7eb2" stroke-width="1.51"/><path d="M2009,-80L2003,148L2224,130Z" fill="#7f9eb2" stroke="#7f9eb2" stroke-width="1.51"/><path d="M2172,695L2159,1025L2224,333Z" fill="#3f82ae" stroke="#3f82ae" stroke-width="1.51"/><path d="M2159,1025L2158,1087L2224,333Z" fill="#2f7aaf" stroke="#2f7aaf" stroke-width="1.51"/><path d="M1998,385L2155,517L2224,333Z" fill="#6092aa" stroke="#6092aa" stroke-width="1.51"/><path d="M2224,130L2003,148L2224,333Z" fill="#7396a9" stroke="#7396a9" stroke-width="1.51"/><path d="M2003,148L1998,385L2224,333Z" fill="#6e99ab" stroke="#6e99ab" stroke-width="1.51"/><path d="M2155,517L2172,695L2224,333Z" fill="#538ba9" stroke="#538ba9" stroke-width="1.51"/><path d="M2009,-80L2224,130L2230,-101Z" fill="#819bb2" stroke="#819bb2" stroke-width="1.51"/><path d="M2115,-253L2009,-80L2230,-101Z" fill="#86a0b9" stroke="#86a0b9" stroke-width="1.51"/><path d="M2224,130L2224,333L2230,-101Z" fill="#7893a7" stroke="#7893a7" stroke-width="1.51"/><path d="M1998,385L2018,509L2155,517Z" fill="#5a94b0" stroke="#5a94b0" stroke-width="1.51"/><path d="M2155,517L2018,509L2172,695Z" fill="#4d8caf" stroke="#4d8caf" stroke-width="1.51"/><path d="M2018,509L1997,777L2172,695Z" fill="#438bb5" stroke="#438bb5" stroke-width="1.51"/><path d="M1947,954L2158,1087L2159,1025Z" fill="#1d70ab" stroke="#1d70ab" stroke-width="1.51"/><path d="M1947,954L1983,1229L2158,1087Z" fill="#186ead" stroke="#186ead" stroke-width="1.51"/><path d="M1915,-235L2009,-80L2115,-253Z" fill="#8ca7c2" stroke="#8ca7c2" stroke-width="1.51"/><path d="M1983,1229L1948,1318L2131,1363Z" fill="#095da1" stroke="#095da1" stroke-width="1.51"/><path d="M830,1325L500,1404L968,1322Z" fill="#6192aa" stroke="#6192aa" stroke-width="1.51"/><path d="M1787,1007L1796,1186L1947,954Z" fill="#207cb6" stroke="#207cb6" stroke-width="1.51"/><path d="M1947,954L1796,1186L1983,1229Z" fill="#1873b2" stroke="#1873b2" stroke-width="1.51"/><path d="M1764,567L1751,703L1997,777Z" fill="#4598c0" stroke="#4598c0" stroke-width="1.51"/><path d="M1741,390L1764,567L1998,385Z" fill="#62a3b9" stroke="#62a3b9" stroke-width="1.51"/><path d="M1773,-68L1797,200L2003,148Z" fill="#83acbc" stroke="#83acbc" stroke-width="1.51"/><path d="M1797,200L1998,385L2003,148Z" fill="#75a4b4" stroke="#75a4b4" stroke-width="1.51"/><path d="M1773,-68L2003,148L2009,-80Z" fill="#86aabe" stroke="#86aabe" stroke-width="1.51"/><path d="M1998,385L1764,567L2018,509Z" fill="#5b9cb8" stroke="#5b9cb8" stroke-width="1.51"/><path d="M1764,567L1997,777L2018,509Z" fill="#4b96bc" stroke="#4b96bc" stroke-width="1.51"/><path d="M1797,200L1741,390L1998,385Z" fill="#70a6b5" stroke="#70a6b5" stroke-width="1.51"/><path d="M1915,-235L1773,-68L2009,-80Z" fill="#8cadc5" stroke="#8cadc5" stroke-width="1.51"/><path d="M1751,703L1947,954L1997,777Z" fill="#338cbf" stroke="#338cbf" stroke-width="1.51"/><path d="M1751,703L1787,1007L1947,954Z" fill="#2f8abe" stroke="#2f8abe" stroke-width="1.51"/><path d="M1838,1300L1948,1318L1983,1229Z" fill="#0c65a8" stroke="#0c65a8" stroke-width="1.51"/><path d="M1796,1186L1838,1300L1983,1229Z" fill="#106cae" stroke="#106cae" stroke-width="1.51"/><path d="M1746,-266L1773,-68L1915,-235Z" fill="#91b4ca" stroke="#91b4ca" stroke-width="1.51"/><path d="M1751,703L1600,808L1787,1007Z" fill="#3794c3" stroke="#3794c3" stroke-width="1.51"/><path d="M1773,-68L1502,162L1797,200Z" fill="#87b6c1" stroke="#87b6c1" stroke-width="1.51"/><path d="M1796,1186L1618,1338L1838,1300Z" fill="#186fad" stroke="#186fad" stroke-width="1.51"/><path d="M1741,390L1616,564L1764,567Z" fill="#5da8bf" stroke="#5da8bf" stroke-width="1.51"/><path d="M1746,-266L1518,-144L1773,-68Z" fill="#93bbcc" stroke="#93bbcc" stroke-width="1.51"/><path d="M1600,808L1554,919L1787,1007Z" fill="#3292c2" stroke="#3292c2" stroke-width="1.51"/><path d="M1787,1007L1579,1211L1796,1186Z" fill="#207cb7" stroke="#207cb7" stroke-width="1.51"/><path d="M1579,1211L1618,1338L1796,1186Z" fill="#1c77b2" stroke="#1c77b2" stroke-width="1.51"/><path d="M1502,162L1600,281L1797,200Z" fill="#7fb6be" stroke="#7fb6be" stroke-width="1.51"/><path d="M1600,281L1741,390L1797,200Z" fill="#76afb9" stroke="#76afb9" stroke-width="1.51"/><path d="M1518,-144L1502,162L1773,-68Z" fill="#8fbdc8" stroke="#8fbdc8" stroke-width="1.51"/><path d="M1554,919L1579,1211L1787,1007Z" fill="#2887bc" stroke="#2887bc" stroke-width="1.51"/><path d="M1616,564L1751,703L1764,567Z" fill="#50a3c1" stroke="#50a3c1" stroke-width="1.51"/><path d="M1551,-340L1518,-144L1746,-266Z" fill="#99c1d2" stroke="#99c1d2" stroke-width="1.51"/><path d="M1616,564L1600,808L1751,703Z" fill="#48a2c5" stroke="#48a2c5" stroke-width="1.51"/><path d="M1600,281L1616,564L1741,390Z" fill="#6aaebd" stroke="#6aaebd" stroke-width="1.51"/><path d="M1366,76L1502,162L1518,-144Z" fill="#92c5ca" stroke="#92c5ca" stroke-width="1.51"/><path d="M1348,-26L1366,76L1518,-144Z" fill="#97c9ce" stroke="#97c9ce" stroke-width="1.51"/><path d="M1439,-226L1518,-144L1551,-340Z" fill="#9cc7d5" stroke="#9cc7d5" stroke-width="1.51"/><path d="M1410,911L1337,1093L1554,919Z" fill="#3999c5" stroke="#3999c5" stroke-width="1.51"/><path d="M1554,919L1337,1093L1579,1211Z" fill="#308ec0" stroke="#308ec0" stroke-width="1.51"/><path d="M1338,742L1600,808L1616,564Z" fill="#4ca9ca" stroke="#4ca9ca" stroke-width="1.51"/><path d="M1411,495L1338,742L1616,564Z" fill="#5bb2c9" stroke="#5bb2c9" stroke-width="1.51"/><path d="M1600,281L1411,495L1616,564Z" fill="#6ab4c1" stroke="#6ab4c1" stroke-width="1.51"/><path d="M1579,1211L1352,1298L1618,1338Z" fill="#267bb3" stroke="#267bb3" stroke-width="1.51"/><path d="M1502,162L1299,266L1600,281Z" fill="#83bfc2" stroke="#83bfc2" stroke-width="1.51"/><path d="M1299,266L1411,495L1600,281Z" fill="#79bdc2" stroke="#79bdc2" stroke-width="1.51"/><path d="M1410,911L1554,919L1600,808Z" fill="#3b9cc7" stroke="#3b9cc7" stroke-width="1.51"/><path d="M1338,742L1410,911L1600,808Z" fill="#43a5cc" stroke="#43a5cc" stroke-width="1.51"/><path d="M1337,1093L1352,1298L1579,1211Z" fill="#2e88bd" stroke="#2e88bd" stroke-width="1.51"/><path d="M1101,-342L1439,-226L1551,-340Z" fill="#a5d1dc" stroke="#a5d1dc" stroke-width="1.51"/><path d="M1439,-226L1348,-26L1518,-144Z" fill="#9ac9d2" stroke="#9ac9d2" stroke-width="1.51"/><path d="M1366,76L1299,266L1502,162Z" fill="#8bc6c7" stroke="#8bc6c7" stroke-width="1.51"/><path d="M1299,266L1172,394L1411,495Z" fill="#7ac5c7" stroke="#7ac5c7" stroke-width="1.51"/><path d="M1228,540L1338,742L1411,495Z" fill="#61bacd" stroke="#61bacd" stroke-width="1.51"/><path d="M1226,-33L1348,-26L1439,-226Z" fill="#9ccfd3" stroke="#9ccfd3" stroke-width="1.51"/><path d="M1101,-342L1226,-33L1439,-226Z" fill="#a4d5d8" stroke="#a4d5d8" stroke-width="1.51"/><path d="M1338,742L1159,943L1410,911Z" fill="#47aace" stroke="#47aace" stroke-width="1.51"/><path d="M1159,943L1337,1093L1410,911Z" fill="#3fa0c9" stroke="#3fa0c9" stroke-width="1.51"/><path d="M1172,394L1228,540L1411,495Z" fill="#71c3c9" stroke="#71c3c9" stroke-width="1.51"/><path d="M1228,540L1138,724L1338,742Z" fill="#5fbacf" stroke="#5fbacf" stroke-width="1.51"/><path d="M1138,724L1159,943L1338,742Z" fill="#53b3d0" stroke="#53b3d0" stroke-width="1.51"/><path d="M1337,1093L1196,1120L1352,1298Z" fill="#3791c2" stroke="#3791c2" stroke-width="1.51"/><path d="M1196,1120L1161,1312L1352,1298Z" fill="#3b8dbe" stroke="#3b8dbe" stroke-width="1.51"/><path d="M1204,96L1299,266L1366,76Z" fill="#91cdca" stroke="#91cdca" stroke-width="1.51"/><path d="M1348,-26L1226,-33L1366,76Z" fill="#99cfd0" stroke="#99cfd0" stroke-width="1.51"/><path d="M1226,-33L1204,96L1366,76Z" fill="#99d0ce" stroke="#99d0ce" stroke-width="1.51"/><path d="M1159,943L1196,1120L1337,1093Z" fill="#429ec5" stroke="#429ec5" stroke-width="1.51"/><path d="M1101,-342L993,-256L1226,-33Z" fill="#acdbd6" stroke="#acdbd6" stroke-width="1.51"/><path d="M1204,96L1026,260L1299,266Z" fill="#91cfc5" stroke="#91cfc5" stroke-width="1.51"/><path d="M1026,260L1172,394L1299,266Z" fill="#89ccc1" stroke="#89ccc1" stroke-width="1.51"/><path d="M993,-256L991,-66L1226,-33Z" fill="#a9dbd1" stroke="#a9dbd1" stroke-width="1.51"/><path d="M991,-66L1204,96L1226,-33Z" fill="#a1d6cd" stroke="#a1d6cd" stroke-width="1.51"/><path d="M1172,394L956,523L1228,540Z" fill="#78c8c6" stroke="#78c8c6" stroke-width="1.51"/><path d="M956,523L1138,724L1228,540Z" fill="#6ec3ca" stroke="#6ec3ca" stroke-width="1.51"/><path d="M1159,943L1011,974L1196,1120Z" fill="#4ea5c4" stroke="#4ea5c4" stroke-width="1.51"/><path d="M960,1220L1161,1312L1196,1120Z" fill="#4894bc" stroke="#4894bc" stroke-width="1.51"/><path d="M969,123L1026,260L1204,96Z" fill="#9ad5c4" stroke="#9ad5c4" stroke-width="1.51"/><path d="M991,-66L969,123L1204,96Z" fill="#a2d8c8" stroke="#a2d8c8" stroke-width="1.51"/><path d="M956,523L943,669L1138,724Z" fill="#70c4c9" stroke="#70c4c9" stroke-width="1.51"/><path d="M1138,724L1011,974L1159,943Z" fill="#57b0ca" stroke="#57b0ca" stroke-width="1.51"/><path d="M1011,974L960,1220L1196,1120Z" fill="#50a0bf" stroke="#50a0bf" stroke-width="1.51"/><path d="M960,1220L968,1322L1161,1312Z" fill="#4c91b5" stroke="#4c91b5" stroke-width="1.51"/><path d="M1026,260L956,523L1172,394Z" fill="#86cec2" stroke="#86cec2" stroke-width="1.51"/><path d="M943,669L1011,974L1138,724Z" fill="#62bbcc" stroke="#62bbcc" stroke-width="1.51"/><path d="M737,-274L993,-256L1101,-342Z" fill="#b8e3d5" stroke="#b8e3d5" stroke-width="1.51"/><path d="M727,765L753,914L943,669Z" fill="#74c2c8" stroke="#74c2c8" stroke-width="1.51"/><path d="M813,-106L991,-66L993,-256Z" fill="#b1e0ce" stroke="#b1e0ce" stroke-width="1.51"/><path d="M943,669L753,914L1011,974Z" fill="#68bac7" stroke="#68bac7" stroke-width="1.51"/><path d="M829,1180L960,1220L1011,974Z" fill="#59a2bc" stroke="#59a2bc" stroke-width="1.51"/><path d="M969,123L788,299L1026,260Z" fill="#9cd8bf" stroke="#9cd8bf" stroke-width="1.51"/><path d="M788,299L956,523L1026,260Z" fill="#91d3bd" stroke="#91d3bd" stroke-width="1.51"/><path d="M813,-106L969,123L991,-66Z" fill="#acdec8" stroke="#acdec8" stroke-width="1.51"/><path d="M753,914L829,1180L1011,974Z" fill="#62acbf" stroke="#62acbf" stroke-width="1.51"/><path d="M743,187L788,299L969,123Z" fill="#a4dabd" stroke="#a4dabd" stroke-width="1.51"/><path d="M737,-274L813,-106L993,-256Z" fill="#bae4cf" stroke="#bae4cf" stroke-width="1.51"/><path d="M712,609L943,669L956,523Z" fill="#7dcbc4" stroke="#7dcbc4" stroke-width="1.51"/><path d="M960,1220L830,1325L968,1322Z" fill="#5594b2" stroke="#5594b2" stroke-width="1.51"/><path d="M813,-106L743,187L969,123Z" fill="#aedfc3" stroke="#aedfc3" stroke-width="1.51"/><path d="M788,299L712,609L956,523Z" fill="#8dd2bf" stroke="#8dd2bf" stroke-width="1.51"/><path d="M829,1180L830,1325L960,1220Z" fill="#5b99b6" stroke="#5b99b6" stroke-width="1.51"/><path d="M712,609L727,765L943,669Z" fill="#7dc8c5" stroke="#7dc8c5" stroke-width="1.51"/><path d="M598,326L533,504L712,609Z" fill="#99d7bb" stroke="#99d7bb" stroke-width="1.51"/><path d="M537,921L508,1174L753,914Z" fill="#78b4bb" stroke="#78b4bb" stroke-width="1.51"/><path d="M598,326L712,609L788,299Z" fill="#9bd7ba" stroke="#9bd7ba" stroke-width="1.51"/><path d="M610,189L743,187L813,-106Z" fill="#b3e1be" stroke="#b3e1be" stroke-width="1.51"/><path d="M527,-128L610,189L813,-106Z" fill="#bde5c2" stroke="#bde5c2" stroke-width="1.51"/><path d="M753,914L508,1174L829,1180Z" fill="#6eaab9" stroke="#6eaab9" stroke-width="1.51"/><path d="M829,1180L508,1174L830,1325Z" fill="#689eb4" stroke="#689eb4" stroke-width="1.51"/><path d="M508,1174L500,1404L830,1325Z" fill="#6e9aac" stroke="#6e9aac" stroke-width="1.51"/><path d="M737,-274L527,-128L813,-106Z" fill="#c1e7ca" stroke="#c1e7ca" stroke-width="1.51"/><path d="M743,187L598,326L788,299Z" fill="#a6dcb9" stroke="#a6dcb9" stroke-width="1.51"/><path d="M539,777L537,921L727,765Z" fill="#82c3c3" stroke="#82c3c3" stroke-width="1.51"/><path d="M544,-264L527,-128L737,-274Z" fill="#c9eacb" stroke="#c9eacb" stroke-width="1.51"/><path d="M610,189L598,326L743,187Z" fill="#addfb8" stroke="#addfb8" stroke-width="1.51"/><path d="M727,765L537,921L753,914Z" fill="#7abec1" stroke="#7abec1" stroke-width="1.51"/><path d="M712,609L539,777L727,765Z" fill="#84cac4" stroke="#84cac4" stroke-width="1.51"/><path d="M533,504L539,777L712,609Z" fill="#8fd0c1" stroke="#8fd0c1" stroke-width="1.51"/><path d="M-132,-341L204,-220L375,-265Z" fill="#e1f3da" stroke="#e1f3da" stroke-width="1.51"/><path d="M317,1356L177,1401L500,1404Z" fill="#7a97aa" stroke="#7a97aa" stroke-width="1.51"/><path d="M342,557L370,754L533,504Z" fill="#9bd5c4" stroke="#9bd5c4" stroke-width="1.51"/><path d="M533,504L370,754L539,777Z" fill="#92d0c5" stroke="#92d0c5" stroke-width="1.51"/><path d="M390,296L533,504L598,326Z" fill="#a9ddba" stroke="#a9ddba" stroke-width="1.51"/><path d="M288,174L390,296L610,189Z" fill="#bae4bc" stroke="#bae4bc" stroke-width="1.51"/><path d="M527,-128L337,-91L610,189Z" fill="#c6e9c4" stroke="#c6e9c4" stroke-width="1.51"/><path d="M337,-91L288,174L610,189Z" fill="#c5e8c1" stroke="#c5e8c1" stroke-width="1.51"/><path d="M390,296L598,326L610,189Z" fill="#b0e0b8" stroke="#b0e0b8" stroke-width="1.51"/><path d="M317,1356L500,1404L508,1174Z" fill="#779caf" stroke="#779caf" stroke-width="1.51"/><path d="M390,296L342,557L533,504Z" fill="#a7dcbf" stroke="#a7dcbf" stroke-width="1.51"/><path d="M370,754L303,877L537,921Z" fill="#8cc5c7" stroke="#8cc5c7" stroke-width="1.51"/><path d="M297,1152L508,1174L537,921Z" fill="#7fb0bc" stroke="#7fb0bc" stroke-width="1.51"/><path d="M303,877L297,1152L537,921Z" fill="#86bac1" stroke="#86bac1" stroke-width="1.51"/><path d="M370,754L537,921L539,777Z" fill="#89c6c6" stroke="#89c6c6" stroke-width="1.51"/><path d="M375,-265L527,-128L544,-264Z" fill="#d0edce" stroke="#d0edce" stroke-width="1.51"/><path d="M297,1152L317,1356L508,1174Z" fill="#7da6b8" stroke="#7da6b8" stroke-width="1.51"/><path d="M375,-265L337,-91L527,-128Z" fill="#d0edcd" stroke="#d0edcd" stroke-width="1.51"/><path d="M174,911L297,1152L303,877Z" fill="#8cbdc4" stroke="#8cbdc4" stroke-width="1.51"/><path d="M202,-42L288,174L337,-91Z" fill="#d0ecc8" stroke="#d0ecc8" stroke-width="1.51"/><path d="M342,557L117,684L370,754Z" fill="#9ed4c9" stroke="#9ed4c9" stroke-width="1.51"/><path d="M204,-220L337,-91L375,-265Z" fill="#d8f0d1" stroke="#d8f0d1" stroke-width="1.51"/><path d="M119,316L342,557L390,296Z" fill="#b4e1c0" stroke="#b4e1c0" stroke-width="1.51"/><path d="M288,174L119,316L390,296Z" fill="#bfe6bf" stroke="#bfe6bf" stroke-width="1.51"/><path d="M202,-42L212,160L288,174Z" fill="#cdebc6" stroke="#cdebc6" stroke-width="1.51"/><path d="M119,316L74,551L342,557Z" fill="#afe0c7" stroke="#afe0c7" stroke-width="1.51"/><path d="M117,684L303,877L370,754Z" fill="#97cfce" stroke="#97cfce" stroke-width="1.51"/><path d="M212,160L119,316L288,174Z" fill="#c4e8c3" stroke="#c4e8c3" stroke-width="1.51"/><path d="M174,911L106,1120L297,1152Z" fill="#8bb6c3" stroke="#8bb6c3" stroke-width="1.51"/><path d="M117,684L174,911L303,877Z" fill="#97cbcd" stroke="#97cbcd" stroke-width="1.51"/><path d="M297,1152L177,1401L317,1356Z" fill="#80a0b4" stroke="#80a0b4" stroke-width="1.51"/><path d="M204,-220L202,-42L337,-91Z" fill="#d6efd0" stroke="#d6efd0" stroke-width="1.51"/><path d="M74,551L117,684L342,557Z" fill="#a6dacb" stroke="#a6dacb" stroke-width="1.51"/><path d="M106,1120L177,1401L297,1152Z" fill="#85a8be" stroke="#85a8be" stroke-width="1.51"/><path d="M106,1120L-68,1347L177,1401Z" fill="#86a3bb" stroke="#86a3bb" stroke-width="1.51"/><path d="M-117,-139L202,-42L204,-220Z" fill="#dbf1d5" stroke="#dbf1d5" stroke-width="1.51"/><path d="M202,-42L10,203L212,160Z" fill="#cfecc9" stroke="#cfecc9" stroke-width="1.51"/><path d="M10,203L119,316L212,160Z" fill="#c6e9c6" stroke="#c6e9c6" stroke-width="1.51"/><path d="M117,684L-52,731L174,911Z" fill="#9cd1d4" stroke="#9cd1d4" stroke-width="1.51"/><path d="M-117,-139L10,203L202,-42Z" fill="#d7efd1" stroke="#d7efd1" stroke-width="1.51"/><path d="M-132,-341L-117,-139L204,-220Z" fill="#e4f4dd" stroke="#e4f4dd" stroke-width="1.51"/><path d="M-67,981L106,1120L174,911Z" fill="#90bcca" stroke="#90bcca" stroke-width="1.51"/><path d="M-52,731L-67,981L174,911Z" fill="#99c9d1" stroke="#99c9d1" stroke-width="1.51"/><path d="M-72,363L74,551L119,316Z" fill="#b9e4c9" stroke="#b9e4c9" stroke-width="1.51"/><path d="M-117,-139L-204,54L10,203Z" fill="#daf1d4" stroke="#daf1d4" stroke-width="1.51"/><path d="M-72,363L-38,563L74,551Z" fill="#b3e1cd" stroke="#b3e1cd" stroke-width="1.51"/><path d="M-129,1230L-68,1347L106,1120Z" fill="#8baac4" stroke="#8baac4" stroke-width="1.51"/><path d="M74,551L-38,563L117,684Z" fill="#a9dbcf" stroke="#a9dbcf" stroke-width="1.51"/><path d="M-38,563L-52,731L117,684Z" fill="#a7d8d2" stroke="#a7d8d2" stroke-width="1.51"/><path d="M10,203L-72,363L119,316Z" fill="#c4e8c6" stroke="#c4e8c6" stroke-width="1.51"/><path d="M-67,981L-129,1230L106,1120Z" fill="#8fb5c8" stroke="#8fb5c8" stroke-width="1.51"/><path d="M-204,54L-299,314L-72,363Z" fill="#cfeccf" stroke="#cfeccf" stroke-width="1.51"/><path d="M-196,1172L-129,1230L-67,981Z" fill="#92b4cb" stroke="#92b4cb" stroke-width="1.51"/><path d="M-204,54L-72,363L10,203Z" fill="#ceeccd" stroke="#ceeccd" stroke-width="1.51"/><path d="M-209,708L-253,966L-67,981Z" fill="#9ecad7" stroke="#9ecad7" stroke-width="1.51"/><path d="M-209,708L-67,981L-52,731Z" fill="#a1d0d8" stroke="#a1d0d8" stroke-width="1.51"/><path d="M-72,363L-335,494L-38,563Z" fill="#bae4d1" stroke="#bae4d1" stroke-width="1.51"/><path d="M-335,494L-209,708L-38,563Z" fill="#b2dfd6" stroke="#b2dfd6" stroke-width="1.51"/><path d="M-209,708L-52,731L-38,563Z" fill="#a9d9d6" stroke="#a9d9d6" stroke-width="1.51"/><path d="M-253,966L-196,1172L-67,981Z" fill="#96bdd0" stroke="#96bdd0" stroke-width="1.51"/><path d="M-132,-341L-207,-340L-117,-139Z" fill="#eaf7e4" stroke="#eaf7e4" stroke-width="1.51"/><path d="M-299,314L-335,494L-72,363Z" fill="#c4e8d0" stroke="#c4e8d0" stroke-width="1.51"/><path d="M-129,1230L-261,1299L-68,1347Z" fill="#8da6c2" stroke="#8da6c2" stroke-width="1.51"/><path d="M-287,-89L-204,54L-117,-139Z" fill="#e2f4db" stroke="#e2f4db" stroke-width="1.51"/><path d="M-207,-340L-287,-89L-117,-139Z" fill="#e8f6e1" stroke="#e8f6e1" stroke-width="1.51"/><path d="M-196,1172L-261,1299L-129,1230Z" fill="#90acc9" stroke="#90acc9" stroke-width="1.51"/><path d="M-253,966L-261,1299L-196,1172Z" fill="#95b4ce" stroke="#95b4ce" stroke-width="1.51"/><path d="M-335,494L-253,966L-209,708Z" fill="#acd8dd" stroke="#acd8dd" stroke-width="1.51"/><path d="M-287,-89L-299,314L-204,54Z" fill="#ddf2d6" stroke="#ddf2d6" stroke-width="1.51"/><path d="M-335,494L-261,1299L-253,966Z" fill="#a0c9d8" stroke="#a0c9d8" stroke-width="1.51"/><path d="M-335,494L-299,314L-287,-89Z" fill="#d3eed3" stroke="#d3eed3" stroke-width="1.51"/></svg>